<svg version="1.2" xmlns="http://www.w3.org/2000/svg" viewBox="0 0 74 73" width="74" height="73"><style>.a{opacity:.3;fill:#fff}.b{fill:#f4f5f9}.c{fill:#e74c3c}</style><g style="mix-blend-mode:color-dodge"><path class="a" d="m37.5 0c20.2 0 36.5 16.2 36.5 36.2 0 20-16.3 36.2-36.5 36.2-20.2 0-36.5-16.2-36.5-36.2 0-20 16.3-36.2 36.5-36.2z"/><path class="b" d="m38 4c17.7 0 32 14.3 32 32 0 17.7-14.3 32-32 32-17.7 0-32-14.3-32-32 0-17.7 14.3-32 32-32z"/><path fill-rule="evenodd" class="c" d="m46.1 47.6c0 0.2-0.2 0.4-0.5 0.4h-14.2c-0.3 0-0.5-0.2-0.5-0.4 0-0.3 0.2-0.5 0.5-0.5h5.2v-1.9c0-0.2 0.2-0.4 0.4-0.4 0.3 0 0.5 0.2 0.5 0.4v1.9h2v-1.9c0-0.2 0.2-0.4 0.5-0.4 0.2 0 0.4 0.2 0.4 0.4v1.9h5.2c0.3 0 0.5 0.2 0.5 0.5zm5.9-20.6v15.9c0 0.5-0.5 1-1 1h-0.8v0.1c0 0.3-0.2 0.5-0.4 0.5-0.3 0-0.5-0.2-0.5-0.5v-0.1h-0.9v0.1c0 0.3-0.2 0.5-0.4 0.5-0.3 0-0.5-0.2-0.5-0.5v-0.1h-0.8v0.1c0 0.3-0.2 0.5-0.5 0.5-0.2 0-0.4-0.2-0.4-0.5v-0.1h-19.8c-0.5 0-1-0.5-1-1v-15.9c0-0.5 0.5-1 1-1h25c0.5 0 1 0.5 1 1zm-0.9 0c0-0.1-0.1-0.1-0.1-0.1h-25c0 0-0.1 0-0.1 0.1v15.9c0 0 0.1 0.1 0.1 0.1h25c0 0 0.1-0.1 0.1-0.1zm-0.9 1.1v9.4c0 0.3-0.2 0.5-0.4 0.5-0.3 0-0.5-0.2-0.5-0.5v-8.9h-22.1c-0.2 0-0.4-0.2-0.4-0.5 0-0.2 0.2-0.4 0.4-0.4h22.6c0.2 0 0.4 0.2 0.4 0.4zm0 11.2v2.3c0 0.3-0.2 0.5-0.4 0.5h-22.6c-0.2 0-0.4-0.2-0.4-0.5v-11.7c0-0.2 0.2-0.4 0.4-0.4 0.3 0 0.5 0.2 0.5 0.4v11.3h21.6v-1.9c0-0.3 0.2-0.5 0.5-0.5 0.2 0 0.4 0.2 0.4 0.5z"/></g></svg>