<svg version="1.2" xmlns="http://www.w3.org/2000/svg" viewBox="0 0 74 73" width="74" height="73"><style>.a{opacity:.3;fill:#fff}.b{fill:#f4f5f9}.c{fill:#e74c3c}</style><path class="a" d="m37.5 0.6c20.2 0 36.5 16.2 36.5 36.2 0 20-16.3 36.2-36.5 36.2-20.2 0-36.5-16.2-36.5-36.2 0-20 16.3-36.2 36.5-36.2z"/><path class="b" d="m38 5c17.7 0 32 14.3 32 32 0 17.7-14.3 32-32 32-17.7 0-32-14.3-32-32 0-17.7 14.3-32 32-32z"/><path fill-rule="evenodd" class="c" d="m50 33.6v11c0 1.8-1.5 3.4-3.4 3.4h-18.2c-1.9 0-3.4-1.6-3.4-3.4v-11c0-1.9 1.5-3.4 3.4-3.4h2.4l2.6-3.8c0.1-0.2 0.4-0.4 0.7-0.4h6.7c0.3 0 0.6 0.2 0.7 0.4l2.5 3.8h2.6c1.9 0 3.4 1.5 3.4 3.4zm-1.6 11h-0.1v-11c0-0.9-0.7-1.7-1.7-1.7l-3-0.1c-0.3 0-0.6-0.1-0.7-0.3l-2.5-3.8h-5.9l-2.6 3.8c-0.2 0.2-0.4 0.4-0.7 0.4h-2.8c-1 0-1.8 0.8-1.8 1.7v11c0 0.9 0.8 1.7 1.8 1.7h18.2c1 0 1.8-0.8 1.8-1.7zm-5-6.5c0 3.3-2.6 5.9-5.8 5.9-3.2 0-5.9-2.6-5.9-5.9 0-3.2 2.6-5.9 5.9-5.9 3.2 0 5.8 2.7 5.8 5.9zm-1.6 0c0-2.3-1.9-4.2-4.2-4.2-2.3 0-4.2 1.9-4.2 4.2 0 2.4 1.9 4.3 4.2 4.3 2.3 0 4.2-1.9 4.2-4.3zm3.6-3.8c0.2 0 0.3 0.2 0.3 0.4 0 0.1-0.1 0.3-0.3 0.3-0.2 0-0.3-0.2-0.3-0.3 0-0.2 0.1-0.4 0.3-0.4zm1.1 0.4c0 0.6-0.5 1.1-1.1 1.1-0.6 0-1.2-0.5-1.2-1.1 0-0.7 0.6-1.2 1.2-1.2 0.6 0 1.1 0.5 1.1 1.2zm-0.6 0c0-0.3-0.2-0.6-0.5-0.6-0.3 0-0.5 0.3-0.5 0.6 0 0.2 0.2 0.5 0.5 0.5 0.3 0 0.5-0.3 0.5-0.5z"/></svg>